name Run_40002_GRF.mot
datacolumns 19
datarows 12
range 2.739 2.75
endheader
time	     ground_force_vx	     ground_force_vy	     ground_force_vz	     ground_force_px	     ground_force_py	     ground_force_pz	   l_ground_force_vx	   l_ground_force_vy	   l_ground_force_vz	   l_ground_force_px	   l_ground_force_py	   l_ground_force_pz	     ground_torque_x	     ground_torque_y	     ground_torque_z	   l_ground_torque_x	   l_ground_torque_y	   l_ground_torque_z	
2.739	          0.00000000	          0.00000000	          0.00000000	          0.00000000	          0.00000000	          0.00000000	        188.02224700	       1205.54846200	        -27.17623900	          0.79215800	          0.00000000	         -0.36890200	          0.00000000	          0.00000000	          0.00000000	         -0.00000000	          7.43388600	         -0.00000000	
2.74	          0.00000000	          0.00000000	          0.00000000	          0.00000000	          0.00000000	          0.00000000	        191.41328400	       1185.28857400	        -27.66404300	          0.78902700	          0.00000000	         -0.36873200	          0.00000000	          0.00000000	          0.00000000	         -0.00000000	          7.57638700	         -0.00000000	
2.741	          0.00000000	          0.00000000	          0.00000000	          0.00000000	          0.00000000	          0.00000000	        194.58309900	       1164.85107400	        -28.12540600	          0.78589900	          0.00000000	         -0.36856000	          0.00000000	          0.00000000	          0.00000000	         -0.00000000	          7.71166200	         -0.00000000	
2.742	          0.00000000	          0.00000000	          0.00000000	          0.00000000	          0.00000000	          0.00000000	        197.52934300	       1144.24865700	        -28.56018600	          0.78277500	          0.00000000	         -0.36838600	          0.00000000	          0.00000000	          0.00000000	         -0.00000000	          7.83935500	         -0.00000000	
2.743	          0.00000000	          0.00000000	          0.00000000	          0.00000000	          0.00000000	          0.00000000	        200.24968000	       1123.49462900	        -28.96842600	          0.77965400	          0.00000000	         -0.36821100	          0.00000000	          0.00000000	          0.00000000	         -0.00000000	          7.95913300	         -0.00000000	
2.744	          0.00000000	          0.00000000	          0.00000000	          0.00000000	          0.00000000	          0.00000000	        202.74165300	       1102.60302700	        -29.35031700	          0.77653700	          0.00000000	         -0.36803500	          0.00000000	          0.00000000	          0.00000000	         -0.00000000	          8.07068100	         -0.00000000	
2.745	          0.00000000	          0.00000000	          0.00000000	          0.00000000	          0.00000000	          0.00000000	        205.00259400	       1081.58801300	        -29.70618400	          0.77342100	          0.00000000	         -0.36785800	          0.00000000	          0.00000000	          0.00000000	         -0.00000000	          8.17370300	         -0.00000000	
2.746	          0.00000000	          0.00000000	          0.00000000	          0.00000000	          0.00000000	          0.00000000	        207.02960200	       1060.46472200	        -30.03646100	          0.77030800	          0.00000000	         -0.36768000	          0.00000000	          0.00000000	          0.00000000	         -0.00000000	          8.26793200	         -0.00000000	
2.747	          0.00000000	          0.00000000	          0.00000000	          0.00000000	          0.00000000	          0.00000000	        208.81953400	       1039.24829100	        -30.34165600	          0.76719800	          0.00000000	         -0.36750200	          0.00000000	          0.00000000	          0.00000000	         -0.00000000	          8.35311800	         -0.00000000	
2.748	          0.00000000	          0.00000000	          0.00000000	          0.00000000	          0.00000000	          0.00000000	        210.36908000	       1017.95428500	        -30.62232200	          0.76409000	          0.00000000	         -0.36732600	          0.00000000	          0.00000000	          0.00000000	         -0.00000000	          8.42903800	         -0.00000000	
2.749	          0.00000000	          0.00000000	          0.00000000	          0.00000000	          0.00000000	          0.00000000	        211.67500300	        996.59851100	        -30.87903600	          0.76098400	          0.00000000	         -0.36715000	          0.00000000	          0.00000000	          0.00000000	         -0.00000000	          8.49549100	         -0.00000000	
2.75	          0.00000000	          0.00000000	          0.00000000	          0.00000000	          0.00000000	          0.00000000	        212.73425300	        975.19702100	        -31.11235400	          0.75788000	          0.00000000	         -0.36697700	          0.00000000	          0.00000000	          0.00000000	         -0.00000000	          8.55230500	         -0.00000000	
